<svg width="24" height="24" viewBox="0 0 24 24" fill="none" xmlns="http://www.w3.org/2000/svg">
<circle cx="12" cy="12" r="12" fill="url(#paint0_radial_2_291)"/>
<circle cx="12" cy="12" r="6" fill="white"/>
<path d="M9.844 14.5V13.668C10.0573 13.4867 10.244 13.3293 10.404 13.196C10.564 13.0573 10.7053 12.9347 10.828 12.828C10.9507 12.716 11.06 12.6147 11.156 12.524C11.252 12.4333 11.348 12.34 11.444 12.244C11.668 12.02 11.852 11.82 11.996 11.644C12.14 11.468 12.2467 11.3027 12.316 11.148C12.3907 10.9933 12.428 10.8333 12.428 10.668C12.428 10.4227 12.3587 10.2307 12.22 10.092C12.0867 9.948 11.9133 9.876 11.7 9.876C11.492 9.876 11.3133 9.94267 11.164 10.076C11.02 10.2093 10.9213 10.3907 10.868 10.62L9.788 10.436C9.852 10.116 9.97467 9.83867 10.156 9.604C10.3427 9.36933 10.572 9.188 10.844 9.06C11.116 8.92667 11.4147 8.86 11.74 8.86C12.012 8.86 12.26 8.90533 12.484 8.996C12.7133 9.08667 12.9107 9.212 13.076 9.372C13.2413 9.532 13.3693 9.72133 13.46 9.94C13.556 10.1587 13.604 10.396 13.604 10.652C13.604 10.892 13.5613 11.1187 13.476 11.332C13.3907 11.5453 13.2547 11.7667 13.068 11.996C12.8867 12.2253 12.652 12.4813 12.364 12.764C12.236 12.8867 12.1027 13.0093 11.964 13.132C11.8307 13.2493 11.692 13.3693 11.548 13.492H13.7V14.5H9.844Z" fill="black"/>
<defs>
<radialGradient id="paint0_radial_2_291" cx="0" cy="0" r="1" gradientUnits="userSpaceOnUse" gradientTransform="translate(12 12) rotate(44.3563) scale(31.4682)">
<stop stop-color="#0065FC"/>
<stop offset="1" stop-color="#0C4395"/>
</radialGradient>
</defs>
</svg>
